# xmcd CD database file
#
# Track frame offsets:
#	150
#	54230
#	118267
#	207892
#
# Disc length: 3725 seconds
#
# Revision: 0
# Processed by: cddbd v1.5.2PL0 Copyright (c) Steve Scherf et al.
# Submitted via: CDex 1.51
#
DISCID=320e8b04
DTITLE=Gil Evans - Farewell 
DYEAR=1900
DGENRE=Jazz
TTITLE0=Let The Juice Loose
TTITLE1=Your Number
TTITLE2=Waltz
TTITLE3=Little Wing
EXTD=
EXTT0=
EXTT1=
EXTT2=
EXTT3=
PLAYORDER=
